<?xml version="1.0" encoding="iso-8859-1"?>
<!-- Generator: Adobe Illustrator 19.0.0, SVG Export Plug-In . SVG Version: 6.00 Build 0)  -->
<svg version="1.1" id="Capa_1" xmlns="http://www.w3.org/2000/svg" xmlns:xlink="http://www.w3.org/1999/xlink" x="0px" y="0px"
	 viewBox="0 0 496 496" style="enable-background:new 0 0 496 496;" xml:space="preserve">
<g>
	<g>
		<path d="M480,64c8.824,0,16-7.176,16-16V15.968l-3.528-2.376C479.248,4.696,463.872,0,448,0c-28.832,0-54.912,15.2-69.208,40H368
			c0-17.648-14.352-32-32-32c-9.608,0-18.128,4.336-24,11.056C306.128,12.336,297.608,8,288,8c-9.608,0-18.128,4.336-24,11.056
			C258.128,12.336,249.608,8,240,8c-9.608,0-18.128,4.336-24,11.056C210.128,12.336,201.608,8,192,8c-17.648,0-32,14.352-32,32
			h-42.792C102.912,15.2,76.832,0,48,0C32.128,0,16.752,4.696,3.528,13.592L0,15.968V48c0,8.824,7.176,16,16,16h40v32H16
			c-8.824,0-16,7.176-16,16v32.032l3.528,2.376C16.752,155.304,32.128,160,48,160c5.616,0,11.064-0.76,16.408-1.872l-8.736,8.736
			l40.776,40.784c-2.6,5.408-4.896,10.88-6.848,16.352H32v112h57.592c1.952,5.464,4.24,10.928,6.848,16.352l-40.776,40.784
			l79.184,79.192l40.784-40.784c5.432,2.616,10.896,4.904,16.36,6.856V496h112v-57.592c5.464-1.952,10.928-4.24,16.36-6.856
			l40.784,40.784l79.184-79.192l-40.776-40.784c2.608-5.424,4.896-10.896,6.848-16.352H464V224h-57.592
			c-1.952-5.472-4.248-10.944-6.848-16.352l40.776-40.784l-8.704-8.712C436.952,159.264,442.4,160,448,160
			c15.872,0,31.248-4.696,44.472-13.592l3.528-2.376V112c0-8.824-7.176-16-16-16h-40V64H480z M320,40c0-8.824,7.176-16,16-16
			c8.824,0,16,7.176,16,16v8v88c0,8.824-7.176,16-16,16c-8.824,0-16-7.176-16-16V40z M272,40c0-8.824,7.176-16,16-16
			c8.824,0,16,7.176,16,16v96c0,8.824-7.176,16-16,16c-8.824,0-16-7.176-16-16V40z M224,40c0-8.824,7.176-16,16-16
			c8.824,0,16,7.176,16,16v96c0,8.824-7.176,16-16,16c-8.824,0-16-7.176-16-16V40z M176,100V40c0-8.824,7.176-16,16-16
			c8.824,0,16,7.176,16,16v96c0,6.976-4.52,13.016-10.904,15.16L176,132.408V100z M234.688,205.976l10.624-11.96l-35.52-31.576
			c2.312-1.56,4.464-3.32,6.288-5.408C221.952,163.704,230.44,168,240,168c9.608,0,18.128-4.336,24-11.056
			c5.872,6.72,14.392,11.056,24,11.056c9.608,0,18.128-4.336,24-11.056c5.872,6.72,14.392,11.056,24,11.056
			c5.856,0,11.272-1.696,16-4.448v33.136l-40,40V312h-16v16h16v33.808C294.328,375.656,272.144,384,248,384
			c-24.144,0-46.328-8.344-64-22.192V328h96v-16h-96v-75.632l-55.808-48.832C122.984,182.984,120,176.4,120,169.48V100
			c0-11.024,8.968-20,20-20s20,8.976,20,20v36v3.592L234.688,205.976z M339.904,231.408C347.8,246.312,352,262.872,352,280
			c0,25.208-9.024,48.336-24,66.36V243.312L339.904,231.408z M168,243.632V346.36c-14.976-18.024-24-41.152-24-66.36
			c0-16.544,3.928-32.792,11.4-47.392L168,243.632z M48,144c-11.288,0-22.272-2.976-32-8.648V112h56V48H16V24.648
			C25.728,18.976,36.712,16,48,16c24.408,0,46.352,13.632,57.264,35.568L107.48,56H160v14.096C154.272,66.256,147.4,64,140,64
			c-19.848,0-36,16.152-36,36v10.592C92.736,131.216,71.568,144,48,144z M380,204.568l2.728,5.208
			c4.24,8.12,7.712,16.4,10.296,24.624l1.768,5.6H448v80h-53.208l-1.768,5.6c-2.576,8.184-6.04,16.472-10.304,24.632L380,355.44
			l37.704,37.704l-56.56,56.568L323.432,412l-5.2,2.72c-8.168,4.264-16.448,7.728-24.624,10.296l-5.6,1.76V480H208v-53.216
			l-5.6-1.76c-8.176-2.568-16.464-6.032-24.624-10.296l-5.2-2.72l-37.712,37.704l-56.56-56.568l37.704-37.704l-2.72-5.208
			c-4.264-8.16-7.728-16.448-10.304-24.632l-1.776-5.6H48v-80h53.208l1.768-5.6c2.584-8.224,6.056-16.504,10.296-24.624l2.728-5.208
			l-37.704-37.704L104,141.16v28.32c0,11.528,4.976,22.504,13.664,30.104l25.432,22.256C133.248,239.576,128,259.576,128,280
			c0,66.168,53.832,120,120,120s120-53.832,120-120c0-21.424-5.616-42.112-16.296-60.392L368,203.312V136v-16h2.848l46.856,46.864
			L380,204.568z M480,112v23.352c-9.728,5.672-20.712,8.648-32,8.648c-24.408,0-46.352-13.632-57.264-35.568L388.52,104H368V56
			h20.52l2.208-4.432C401.648,29.632,423.592,16,448,16c11.288,0,22.272,2.976,32,8.648V48h-56v64H480z"/>
	</g>
</g>
<g>
</g>
<g>
</g>
<g>
</g>
<g>
</g>
<g>
</g>
<g>
</g>
<g>
</g>
<g>
</g>
<g>
</g>
<g>
</g>
<g>
</g>
<g>
</g>
<g>
</g>
<g>
</g>
<g>
</g>
</svg>
