<svg id="Capa_1" enable-background="new 0 0 512.008 512.008" height="512" viewBox="0 0 512.008 512.008" width="512" xmlns="http://www.w3.org/2000/svg"><g><g><g><path d="m363.542 198.72c5.515 2.257 11.951-.971 13.461-6.716 2.325-8.861 3.505-18.044 3.505-27.29 0-9.183-1.166-18.313-3.466-27.139-1.5-5.76-7.949-8.994-13.474-6.729-7.327 3.01-15.848.093-19.818-6.782-3.973-6.877-2.236-15.707 4.039-20.539 4.72-3.633 5.17-10.833.938-15.026-13.121-13.005-29.437-22.441-47.181-27.29-5.757-1.578-11.77 2.432-12.55 8.339-1.038 7.866-7.82 13.798-15.777 13.798s-14.739-5.932-15.777-13.798c-.78-5.906-6.792-9.917-12.55-8.339-17.74 4.848-34.054 14.284-47.176 27.29-4.228 4.191-3.782 11.388.936 15.022 6.273 4.836 8.011 13.669 4.042 20.544-3.971 6.875-12.488 9.788-19.816 6.781-5.523-2.266-11.972.969-13.475 6.729-2.301 8.823-3.467 17.955-3.467 27.14 0 9.246 1.18 18.429 3.506 27.29 1.509 5.748 7.945 8.971 13.462 6.715 7.318-2.995 15.823-.076 19.788 6.789 3.953 6.852 2.239 15.668-3.987 20.507-2.273 1.767-3.675 4.428-3.847 7.302-.171 2.873.904 5.682 2.951 7.706 13.114 12.966 29.402 22.372 47.105 27.203 5.733 1.562 11.729-2.398 12.54-8.286 1.073-7.814 7.851-13.707 15.765-13.707s14.691 5.893 15.765 13.706c.807 5.88 6.804 9.852 12.539 8.287 17.706-4.83 33.997-14.236 47.112-27.203 4.226-4.179 3.799-11.36-.896-15.008-6.229-4.841-7.944-13.655-3.988-20.505 3.965-6.869 12.475-9.789 19.791-6.791zm-37.109-3.211c-6.895 11.937-6.147 26.525 1.036 37.591-6.738 5.35-14.233 9.682-22.207 12.833-5.987-11.756-18.25-19.7-32.042-19.7-13.79 0-26.053 7.945-32.041 19.7-7.973-3.153-15.465-7.482-22.203-12.834 7.18-11.063 7.928-25.65 1.038-37.589-6.908-11.966-19.945-18.614-33.131-17.9-.629-4.252-.946-8.563-.946-12.896 0-4.279.311-8.543.926-12.751 13.207.725 26.237-5.926 33.151-17.897 6.921-11.987 6.146-26.615-1.099-37.687 6.734-5.357 14.224-9.694 22.197-12.855 5.957 11.828 18.243 19.822 32.107 19.822s26.15-7.995 32.107-19.822c7.975 3.16 15.466 7.497 22.2 12.854-7.25 11.071-8.022 25.701-1.095 37.691 6.912 11.969 19.931 18.608 33.149 17.895.615 4.209.926 8.473.926 12.752 0 4.332-.317 8.645-.946 12.896-13.19-.707-26.223 5.934-33.127 17.897z"/><path d="m273.22 121.371c-23.899 0-43.343 19.443-43.343 43.343s19.443 43.344 43.343 43.344 43.344-19.444 43.344-43.344-19.445-43.343-43.344-43.343zm0 66.686c-12.871 0-23.343-10.472-23.343-23.344 0-12.871 10.472-23.343 23.343-23.343 12.872 0 23.344 10.472 23.344 23.343-.001 12.873-10.472 23.344-23.344 23.344z"/><path d="m511.082 421.373c-4.9-23.573-28.89-39.003-52.407-33.621l-100.097 22.918c-18.037 4.13-36.646 3.25-54.131-2.512 6.82-4.793 12.427-11.524 15.938-19.818 9.788-22.886-.536-50.008-23.749-59.615l-101.958-42.201c-1.212-.501-2.512-.76-3.824-.76h-95.157v-13.582c0-5.445-4.555-10-10-10h-75.697c-5.522 0-10 4.478-10 10v175.777c0 5.522 4.478 10 10 10h75.696c5.522 0 10-4.478 10-10v-9.505h39.51c5.522 0 10-4.478 10-10s-4.478-10-10-10h-39.51v-52.704-59.987h93.169l100.121 41.441c13.066 5.408 18.52 20.575 12.98 33.337-5.304 12.526-19.04 18.745-31.719 14.598l-68.179-26.212c-5.157-1.983-10.941.59-12.923 5.745s.591 10.941 5.745 12.923c.002.001 37.939 14.586 66.868 25.744.576.223 1.153.432 1.732.63l29.101 11.188c22.544 8.668 46.905 10.398 70.447 5.009l100.097-22.918c12.725-2.916 25.711 5.438 28.362 18.195 2.577 12.395-5.017 24.547-17.286 27.666l-119.436 30.354c-20.615 5.239-41.979 3.902-61.781-3.863l-70.69-27.727c-5.142-2.018-10.944.517-12.961 5.658s.517 10.944 5.658 12.961l70.69 27.727c14.23 5.581 29.131 8.39 44.109 8.39 9.992 0 20.021-1.251 29.901-3.763l119.435-30.354c22.677-5.762 36.707-28.217 31.946-51.119zm-491.082 16.586v-155.778h55.697v91.644 54.629.001 9.504z"/><path d="m96.339 207.588 28.191 16.613c4.468 2.635 10.397 1.313 13.326-2.963l18.627-27.186c3.122-4.556 1.959-10.78-2.597-13.901-4.553-3.122-10.779-1.959-13.901 2.597l-5.96 8.698c-4.988-26.817-2.064-54.74 8.594-80.089 29.995-71.345 112.44-104.985 183.787-74.986 34.561 14.53 61.395 41.649 75.558 76.361 14.163 34.713 13.961 72.863-.57 107.424-7.229 17.196-17.573 32.502-30.742 45.492-3.932 3.878-3.976 10.21-.097 14.142 3.821 3.875 10.267 3.918 14.142.097 15.056-14.851 26.877-32.339 35.135-51.979 16.601-39.485 16.832-83.072.65-122.731-16.182-39.658-46.838-70.643-86.323-87.243-81.51-34.27-175.706 4.162-209.977 85.672-12.158 28.919-15.504 60.774-9.839 91.378l-7.85-4.626c-4.761-2.805-10.889-1.221-13.692 3.538-2.804 4.757-1.22 10.888 3.538 13.692z"/><path d="m350.399 290.209c-3.018-4.535-9.334-5.773-13.859-2.761-4.531 3.017-5.78 9.339-2.771 13.87 3.014 4.538 9.353 5.768 13.87 2.76 4.563-3.039 5.743-9.319 2.76-13.869z"/></g></g><path d="m184.255 438.877c-3.018-4.535-9.334-5.773-13.859-2.761-4.531 3.017-5.78 9.339-2.771 13.87 3.014 4.538 9.353 5.768 13.87 2.76 4.562-3.039 5.742-9.318 2.76-13.869z"/></g></svg>