<svg id="Layer_1" enable-background="new 0 0 512.078 512.078" height="512" viewBox="0 0 512.078 512.078" width="512" xmlns="http://www.w3.org/2000/svg"><g id="XMLID_753_"><g id="XMLID_1101_"><path id="XMLID_1262_" d="m477.941 331.098c-25.643-23.307-60.159-32.208-93.388-24.369l-63.61-63.611 110.335-110.335c1.063-1.063 1.826-2.308 2.31-3.632h26.435c3.736 0 7.161-2.084 8.88-5.401l41.705-80.534c2.004-3.869 1.271-8.589-1.809-11.67l-28.216-28.215c-3.081-3.081-7.804-3.812-11.67-1.809l-80.533 41.705c-3.318 1.718-5.401 5.143-5.401 8.88v26.435c-1.324.484-2.569 1.247-3.632 2.31l-110.336 110.335-63.87-63.87c8.016-34.871-2.327-71.518-27.701-96.892-16.083-16.083-36.459-26.252-58.926-29.41-21.712-3.05-44.275.936-63.528 11.226-2.793 1.493-4.713 4.22-5.178 7.352s.582 6.299 2.82 8.539l49.548 49.547c3.268 3.267 5.067 7.611 5.067 12.232s-1.8 8.965-5.067 12.232c-6.742 6.744-17.718 6.746-24.464 0l-49.54-49.541c-2.239-2.239-5.402-3.287-8.539-2.821-3.132.464-5.859 2.385-7.352 5.178-22.47 42.042-13.482 93.835 21.855 125.953 25.644 23.307 60.159 32.209 93.388 24.369l41.292 41.292c-5.278 1.72-10.24 4.663-14.427 8.849l-133.131 133.133c-28.208 28.209-28.208 74.108 0 102.316 13.664 13.665 31.833 21.19 51.158 21.19s37.493-7.525 51.158-21.19l22.026-22.027c3.905-3.905 3.905-10.237 0-14.142-3.906-3.905-10.236-3.905-14.143 0l-22.026 22.026c-20.41 20.411-53.622 20.41-74.032 0-20.41-20.411-20.41-53.621 0-74.032l106.726-106.726 74.032 74.032-21.06 21.06c-3.905 3.905-3.905 10.237 0 14.142 3.906 3.905 10.236 3.905 14.143 0l47.465-47.465c4.112-4.112 7.111-9.038 8.868-14.409l41.363 41.363c-8.016 34.871 2.327 71.518 27.701 96.892 16.083 16.083 36.459 26.252 58.926 29.41 4.762.669 9.564 1 14.364 1 17.086 0 34.134-4.192 49.164-12.226 2.793-1.493 4.713-4.22 5.178-7.352s-.581-6.299-2.82-8.539l-49.548-49.548c-3.268-3.267-5.067-7.611-5.067-12.231 0-4.621 1.8-8.965 5.067-12.232 6.746-6.745 17.722-6.744 24.464 0l49.541 49.541c2.238 2.238 5.398 3.285 8.539 2.821 3.132-.464 5.859-2.385 7.352-5.178 22.469-42.041 13.482-93.835-21.856-125.953zm-6.327-308.452 17.87 17.869-35.544 68.636h-32.151l-18.811-18.811v-32.151zm-85.196 79.418 23.646 23.647-166.912 166.914-23.647-23.647zm-258.743 82.489c-28.224 8.384-58.16 1.489-80.088-18.441-25.063-22.78-33.722-57.806-23.182-88.991l39.164 39.165c14.542 14.542 38.205 14.542 52.749 0 7.045-7.045 10.925-16.411 10.925-26.375 0-9.963-3.88-19.329-10.925-26.375l-39.185-39.185c29.92-10.198 63.161-2.788 86.165 20.217 21.629 21.629 29.724 53.425 21.126 82.981-1.02 3.504-.05 7.284 2.53 9.865l67.915 67.915-17.682 17.682-37.403-37.402c-3.906-3.905-10.236-3.905-14.143 0-3.905 3.905-3.905 10.237 0 14.142l37.403 37.402-17.682 17.682-67.768-67.768c-2.594-2.594-6.402-3.561-9.919-2.514zm114.888 159.045-12.262 12.262-74.032-74.032 12.263-12.263c6.413-6.416 16.854-6.417 23.272 0l50.759 50.76c6.417 6.416 6.417 16.857 0 23.273zm245.109 91.292-39.164-39.165c-7.045-7.045-16.412-10.924-26.374-10.924-9.963 0-19.33 3.879-26.375 10.924s-10.925 16.411-10.925 26.375c0 9.963 3.88 19.329 10.925 26.374l39.187 39.187c-29.918 10.197-63.161 2.788-86.165-20.217-21.629-21.629-29.724-53.425-21.126-82.981 1.02-3.504.05-7.284-2.53-9.865l-67.83-67.83 17.682-17.682 37.318 37.317c1.953 1.953 4.512 2.929 7.071 2.929s5.118-.977 7.071-2.929c3.905-3.905 3.905-10.237 0-14.142l-37.318-37.317 17.681-17.684 67.683 67.683c2.596 2.595 6.403 3.562 9.919 2.515 28.225-8.384 58.16-1.489 80.088 18.441 25.063 22.78 33.722 57.806 23.182 88.991z"/><path id="XMLID_2199_" d="m170.348 419.951c-2.63 0-5.21 1.07-7.069 2.93-1.86 1.86-2.931 4.44-2.931 7.07 0 2.64 1.07 5.21 2.931 7.07 1.859 1.86 4.439 2.93 7.069 2.93s5.21-1.07 7.07-2.93 2.93-4.43 2.93-7.07c0-2.63-1.069-5.21-2.93-7.07-1.86-1.86-4.44-2.93-7.07-2.93z"/></g></g></svg>